<?xml version="1.0" encoding="utf-8"?>
<!-- Generator: Adobe Illustrator 19.0.0, SVG Export Plug-In . SVG Version: 6.00 Build 0)  -->
<svg version="1.1" id="Capa_1" xmlns="http://www.w3.org/2000/svg" xmlns:xlink="http://www.w3.org/1999/xlink" x="0px" y="0px"
	 viewBox="-439 933 200 55" style="enable-background:new -439 933 200 55;" xml:space="preserve">
<style type="text/css">
	.st0{opacity:0.75;}
	.st1{font-family:'WorkSans-ExtraLight';}
	.st2{font-size:9.3915px;}
	.st3{fill:#0092FF;}
</style>
<g class="st0">
	<g>
		<path d="M-321.8,945.2L-321.8,945.2l-13.8,30h-1l-13.9-29.9v-0.1h3l9.7,21c0.7,1.6,1.2,2.7,1.6,3.8c0.4-1.2,1.1-2.8,1.7-3.9
			l9.5-20.9C-325,945.2-321.8,945.2-321.8,945.2z"/>
		<path d="M-312.5,945.2h2.9V975h-2.9C-312.5,975-312.5,945.2-312.5,945.2z"/>
		<path d="M-296.4,945.2h2.9V975h-2.9V945.2z"/>
		<path d="M-282.3,960.1c0-8.8,6.3-15.4,15.1-15.4c8.9,0,15.1,6.5,15.1,15.4c0,8.5-6.2,15.5-15.1,15.5
			C-276,975.5-282.3,968.6-282.3,960.1z M-255,960.1c0-7.4-4.9-12.7-12.2-12.7c-7.2,0-12.2,5.3-12.2,12.7c0,7,4.9,12.8,12.2,12.8
			C-259.9,972.9-255,967.1-255,960.1z"/>
	</g>
	<text transform="matrix(1 0 0 1 -249.7881 976.3096)" class="st1 st2">®</text>
</g>
<g>
	<path class="st3" d="M-372.4,946.1l-11.2-7.4c-0.7-0.5-1.4-0.7-2.2-0.7c-0.8,0-1.5,0.2-2.2,0.7l-13.3,8.8c-0.7,0.4-1.4,0.7-2.2,0.7
		s-1.5-0.2-2.2-0.7l-13.3-8.8c-0.7-0.5-1.5-0.7-2.2-0.7c-0.7,0-1.5,0.2-2.2,0.7l-11.2,7.4c-2.2,1.5-2.2,4.6,0,6.1l25.5,16.8
		c1.7,1.1,3.7,1.7,5.6,1.7c2,0,3.9-0.6,5.6-1.7l25.5-16.9C-370.2,950.7-370.2,947.5-372.4,946.1z"/>
</g>
<g class="st0">
	<g>
		<path class="st3" d="M-372.4,959.1l-2.7-1.8l-21.1,14c-2.1,1.4-4.7,2.2-7.3,2.2s-5.1-0.8-7.3-2.2l-21.1-14l-2.7,1.8
			c-2.2,1.5-2.2,4.6,0,6.1l27.4,18.2c2.2,1.5,5.2,1.5,7.4,0l27.4-18.2C-370.2,963.7-370.2,960.5-372.4,959.1z"/>
	</g>
</g>
</svg>
